<svg id="Capa_1" enable-background="new 0 0 512 512" height="512" viewBox="0 0 512 512" width="512" xmlns="http://www.w3.org/2000/svg"><g><g><g><g><g><g><g><circle cx="256" cy="256" fill="#424edd" r="256"/></g></g></g></g></g></g><path d="m404.159 137.49-34.177-34.177-19.855 11.837-34.92-34.92-11.792 13.015 1.925 51.178-67.423-67.423-8.035 58.752-49.21-49.21-18.367 40.415-56.385 20.585 49.523 49.523-62.353-15.441 35.359 35.359 7.121 40.529-3.003 3.193-28.78-28.78-63.132 63.132 216.923 216.923c140.657-.851 254.422-115.123 254.422-255.98 0-4.803-.144-9.572-.405-14.31l-98.558-98.558z" fill="#2633d7"/><g><path d="m197.156 122.425-16.485-35.883-74.752 60.999 37.488 24.758z" fill="#ff4c04"/><path d="m40.654 295.056 48.204-40.505 7.287-11.566-7.287-11.582-48.204-33.634 10.225 48.644z" fill="#ff4c04"/><path d="m272.144 98.432c-9.734 0-19.125.927-28.197 2.649l-6.03-24.081-16.312 4.086 6.025 24.058c-37.456 11.608-68.912 37.373-94.962 70.02l-7.514 9.646-21.916-16.591-10.149 13.406 21.731 16.451-25.962 33.328v23.148l15.26 25.078-22.724 12.219 7.963 14.81 23.514-12.644 13.07 21.479 146.202 14.646 29.147-109.201z" fill="#ff7037"/><path d="m440.344 230.77-31.657-49.059-.001.001c-4.143-8.038-8.986-15.654-14.429-22.788l18.78-15.793-10.823-12.87-18.876 15.874c-7.929-8.33-16.775-15.777-26.391-22.163l13.034-20.661-14.222-8.973-13.323 21.118c-9.831-5.073-20.276-9.117-31.201-11.986l3.971-23.242-16.576-2.831-3.878 22.697c-7.379-1.089-14.926-1.664-22.608-1.664v231.707l36.563 3.663 114.097-79.846 14.442-7.691-2.656-7.525z" fill="#ff4c04"/><g><path d="m291.202 342.833-19.057-62.64-146.202 35.3c4.631 8.237 10.059 16.207 16.151 23.787l-19.89 16.68 10.805 12.885 20.211-16.949c8.152 8.441 17.18 16.197 26.912 23.034l-14.873 19.807 13.447 10.098 15.665-20.862c11.224 6.41 23.171 11.598 35.618 15.273l-7.196 23.627 16.086 4.9 7.505-24.642c8.438 1.515 17.042 2.341 25.761 2.341z" fill="#ffe377"/><path d="m425.665 251.953-71.582 41.021-26.231-26.231-55.708 13.45v125.28c7.272 0 14.422-.517 21.425-1.495l7.247 23.795 16.086-4.899-6.745-22.147c12.988-3.309 25.31-8.279 36.737-14.661l14.095 18.771 13.447-10.098-13.283-17.689c9.781-6.972 18.705-15.065 26.594-24.086l18.94 15.882 10.804-12.885-19.378-16.249c17.362-24.876 27.552-55.125 27.552-87.759z" fill="#fd5"/></g><path d="m272.144 204.308-49.044-16.817v86.884l49.044-11.211 11.211-28.028z" fill="#ff4c04"/><path d="m272.144 263.164 49.045-11.211v-30.828l-49.045-16.817z" fill="#cf3b00"/><circle cx="379.389" cy="220.938" fill="#f7f9fa" r="14.2"/><circle cx="379.389" cy="220.938" fill="#373c41" r="8.139"/></g></g></svg>